<svg xmlns="http://www.w3.org/2000/svg" xmlns:xlink="http://www.w3.org/1999/xlink" viewBox="0 0 266.4 322.75"><defs><style>.cls-1{fill:none;}.cls-2{isolation:isolate;}.cls-3{clip-path:url(#clip-path);}.cls-4{fill:#ededed;}.cls-5{opacity:0.11;}.cls-12,.cls-5{mix-blend-mode:multiply;}.cls-6{clip-path:url(#clip-path-4);}.cls-7{clip-path:url(#clip-path-5);}.cls-8{fill:url(#linear-gradient);}.cls-9{fill:#fbcb97;}.cls-10{fill:#d85051;}.cls-11{fill:#772e33;}.cls-12{opacity:0.3;}.cls-13{clip-path:url(#clip-path-6);}.cls-14{clip-path:url(#clip-path-7);}.cls-15{fill:url(#linear-gradient-2);}.cls-16{fill:#f2906a;}.cls-17{fill:#3e1d15;}.cls-18{fill:#faf6ea;}</style><clipPath id="clip-path" transform="translate(-135.54 -210.74)"><rect class="cls-1" x="190" y="210.74" width="211.95" height="258.26"/></clipPath><clipPath id="clip-path-4" transform="translate(-135.54 -210.74)"><rect class="cls-1" x="191.56" y="326.39" width="125.35" height="132.81"/></clipPath><clipPath id="clip-path-5" transform="translate(-135.54 -210.74)"><polygon class="cls-1" points="237.61 326.39 191.56 380.97 261.79 459.2 316.92 393.86 237.61 326.39"/></clipPath><linearGradient id="linear-gradient" x1="-1.44" y1="-1.81" x2="-1.15" y2="-1.81" gradientTransform="matrix(184.24, -184.24, -184.24, -184.24, 26.55, -391.16)" gradientUnits="userSpaceOnUse"><stop offset="0" stop-color="#fff"/><stop offset="1"/></linearGradient><clipPath id="clip-path-6" transform="translate(-135.54 -210.74)"><rect class="cls-1" x="213.97" y="313.43" width="102.68" height="131.83"/></clipPath><clipPath id="clip-path-7" transform="translate(-135.54 -210.74)"><polygon class="cls-1" points="265.6 313.43 213.97 374.63 273.55 445.26 316.64 393.86 265.6 313.43"/></clipPath><linearGradient id="linear-gradient-2" x1="-1.65" y1="-1.72" x2="-1.36" y2="-1.72" gradientTransform="matrix(183, -183, -183, -183, 94.51, -425.07)" xlink:href="#linear-gradient"/></defs><title>Untitled-1</title><g class="cls-2"><g id="Layer_1" data-name="Layer 1"><g class="cls-3"><g class="cls-3"><rect class="cls-4" x="54.46" width="211.95" height="258.26"/><g class="cls-3"><g class="cls-5"><g class="cls-6"><g class="cls-7"><polygon class="cls-8" points="0 182.05 118.7 41.35 237.39 182.05 118.7 322.75 0 182.05"/></g></g></g><path class="cls-9" d="M358,337.52c0,10.75-7.35,19.47-16.43,19.47s-16.43-8.72-16.43-19.47S332.54,318,341.61,318,358,326.76,358,337.52" transform="translate(-135.54 -210.74)"/><path class="cls-9" d="M267.53,337.52c0,10.75-7.36,19.47-16.43,19.47s-16.44-8.72-16.44-19.47S242,318,251.1,318s16.43,8.72,16.43,19.48" transform="translate(-135.54 -210.74)"/><path class="cls-10" d="M260.48,337.52c0,6.14-4.2,11.13-9.38,11.13s-9.39-5-9.39-11.13,4.2-11.13,9.39-11.13,9.38,5,9.38,11.13" transform="translate(-135.54 -210.74)"/><path class="cls-10" d="M351,337.52c0,6.14-4.2,11.13-9.39,11.13s-9.39-5-9.39-11.13,4.21-11.13,9.39-11.13,9.39,5,9.39,11.13" transform="translate(-135.54 -210.74)"/><path class="cls-11" d="M343.81,337.52c0,31.11-21.28,56.34-47.53,56.34s-47.53-25.23-47.53-56.34,21.28-56.35,47.53-56.35,47.53,25.23,47.53,56.35" transform="translate(-135.54 -210.74)"/><g class="cls-12"><g class="cls-13"><g class="cls-14"><polygon class="cls-15" points="22.82 168.6 129.76 41.84 236.71 168.6 129.76 295.37 22.82 168.6"/></g></g></g><path class="cls-9" d="M335.45,329.86c0-12.67-8.67-22.95-19.36-22.95-8.68,0-16,6.77-18.49,16.1-2.46-9.33-9.8-16.1-18.48-16.1-10.7,0-19.37,10.28-19.37,22.95,0,10.84,6.34,19.89,14.85,22.31a37,37,0,0,0-4.58,18c0,18.05,12.35,32.69,27.58,32.69s27.58-14.64,27.58-32.69a37,37,0,0,0-4.58-18c8.51-2.42,14.85-11.47,14.85-22.31" transform="translate(-135.54 -210.74)"/><path class="cls-11" d="M274.8,287.26a231.16,231.16,0,0,1,40.85-21.39L302.9,281.73l18-5.16-3.14,10.69h7.39v8.52Z" transform="translate(-135.54 -210.74)"/><path class="cls-10" d="M299.81,380c0,2.55-1.19,4.62-2.65,4.62s-2.65-2.07-2.65-4.62,1.19-4.63,2.65-4.63,2.65,2.07,2.65,4.63" transform="translate(-135.54 -210.74)"/><path class="cls-16" d="M292.71,329.86c0,8.88-6.07,16.07-13.56,16.07s-13.55-7.19-13.55-16.07,6.06-16.06,13.55-16.06,13.56,7.19,13.56,16.06" transform="translate(-135.54 -210.74)"/><path class="cls-17" d="M287.11,329.86c0,5.22-3.56,9.44-8,9.44s-8-4.22-8-9.44,3.56-9.43,8-9.43,8,4.22,8,9.43" transform="translate(-135.54 -210.74)"/><path class="cls-11" d="M285.25,329.86c0,4-2.73,7.24-6.1,7.24s-6.1-3.24-6.1-7.24,2.73-7.23,6.1-7.23,6.1,3.24,6.1,7.23" transform="translate(-135.54 -210.74)"/><path class="cls-17" d="M284.33,327.34c0,3.15-2.15,5.7-4.81,5.7s-4.81-2.55-4.81-5.7,2.15-5.71,4.81-5.71,4.81,2.56,4.81,5.71" transform="translate(-135.54 -210.74)"/><path class="cls-18" d="M285.25,327a3,3,0,1,1-3-3.52,3.29,3.29,0,0,1,3,3.52" transform="translate(-135.54 -210.74)"/><path class="cls-16" d="M330.49,329.86c0,8.88-6.06,16.07-13.55,16.07s-13.56-7.19-13.56-16.07,6.07-16.06,13.56-16.06,13.55,7.19,13.55,16.06" transform="translate(-135.54 -210.74)"/><path class="cls-17" d="M324.9,329.86c0,5.22-3.57,9.44-8,9.44s-8-4.22-8-9.44,3.56-9.43,8-9.43,8,4.22,8,9.43" transform="translate(-135.54 -210.74)"/><path class="cls-11" d="M323,329.86c0,4-2.73,7.24-6.1,7.24s-6.1-3.24-6.1-7.24,2.73-7.23,6.1-7.23,6.1,3.24,6.1,7.23" transform="translate(-135.54 -210.74)"/><path class="cls-17" d="M322.12,327.34c0,3.15-2.15,5.7-4.81,5.7s-4.81-2.55-4.81-5.7,2.15-5.71,4.81-5.71,4.81,2.56,4.81,5.71" transform="translate(-135.54 -210.74)"/><path class="cls-18" d="M323,327a3,3,0,1,1-3-3.52,3.29,3.29,0,0,1,3,3.52" transform="translate(-135.54 -210.74)"/><path class="cls-16" d="M301.82,354.8c0,.8-2.2,1.44-4.91,1.44S292,355.6,292,354.8s2.2-1.44,4.91-1.44,4.91.64,4.91,1.44" transform="translate(-135.54 -210.74)"/></g></g></g></g></g></svg>